<svg width="132" height="41" viewBox="0 0 132 41" fill="none" xmlns="http://www.w3.org/2000/svg">
<path d="M0.306818 33L4.17045 9.72727H9.79545L8.25 19.0682H17.4205L18.9659 9.72727H24.5795L20.7159 33H15.1023L16.6477 23.6477H7.47727L5.93182 33H0.306818ZM24.2443 33L28.108 9.72727H44.3352L43.5625 14.2955H32.9602L32.1875 19.0682H41.9602L41.1875 23.6477H31.4148L30.642 28.4318H41.2443L40.4716 33H24.2443ZM67.6648 9.72727L63.8011 33H59.0284L52.017 19.5682H51.858L49.6193 33H43.9943L47.858 9.72727H52.6989L59.6534 23.1364H59.8466L62.0511 9.72727H67.6648ZM76.0653 33H67.3381L71.2017 9.72727H79.6676C82.0312 9.72727 84.0009 10.2083 85.5767 11.1705C87.16 12.125 88.2775 13.4962 88.929 15.2841C89.5881 17.0644 89.7131 19.1856 89.304 21.6477C88.91 24.0265 88.1184 26.0644 86.929 27.7614C85.7472 29.4583 84.232 30.7576 82.3835 31.6591C80.535 32.553 78.429 33 76.0653 33ZM73.7472 28.2045H76.4176C77.7206 28.2045 78.8722 27.9697 79.8722 27.5C80.8797 27.0227 81.7131 26.2614 82.3722 25.2159C83.0313 24.1629 83.5009 22.7803 83.7812 21.0682C84.054 19.4318 84.0426 18.1402 83.7472 17.1932C83.4593 16.2386 82.8987 15.5568 82.0653 15.1477C81.2396 14.7311 80.16 14.5227 78.8267 14.5227H76.0312L73.7472 28.2045ZM94.3722 33H88.3267L100.043 9.72727H107.531L111.52 33H105.474L102.918 15.5909H102.736L94.3722 33ZM95.0994 23.8409H107.736L107.009 28.1136H94.3722L95.0994 23.8409ZM114.026 33L117.889 9.72727H123.514L120.423 28.4318H130.105L129.332 33H114.026Z" fill="black"/>
<path d="M67 36H132V36C132 38.7614 129.761 41 127 41H67V36Z" fill="black"/>
<path d="M4 5C4 2.23858 6.23858 0 9 0H69V5H4V5Z" fill="black"/>
</svg>
